<?xml version="1.0" encoding="UTF-8"?>
<svg xmlns="http://www.w3.org/2000/svg" xmlns:xlink="http://www.w3.org/1999/xlink" viewBox="0 0 50 50" width="50px" height="50px">
<g id="surface185397038">
<path style=" stroke:none;fill-rule:nonzero;fill:rgb(90.196079%,22.745098%,9.411765%);fill-opacity:1;" d="M 5.5 7 C 3.019531 7 1 9.019531 1 11.5 L 1 11.925781 L 25 29 L 49 11.925781 L 49 11.5 C 49 9.019531 46.980469 7 44.5 7 Z M 6.351562 9 L 43.644531 9 L 25 22 Z M 1 14.027344 L 1 38.5 C 1 40.980469 3.019531 43 5.5 43 L 44.5 43 C 46.980469 43 49 40.980469 49 38.5 L 49 14.027344 L 43 18.296875 L 43 41 L 7 41 L 7 18.296875 Z M 1 14.027344 "/>
</g>
</svg>
