<svg xmlns="http://www.w3.org/2000/svg" xmlns:xlink="http://www.w3.org/1999/xlink" version="1.1" width="256" height="256" viewBox="0 0 256 256" xml:space="preserve">
<desc>Created with Fabric.js 1.7.22</desc>
<defs>
</defs>
<g transform="translate(128 128) scale(0.97 0.97)" style="">
	<g style="stroke: none; stroke-width: 0; stroke-dasharray: none; stroke-linecap: butt; stroke-linejoin: miter; stroke-miterlimit: 10; fill: none; fill-rule: nonzero; opacity: 1;" transform="translate(-130.05 -130.05000000000004) scale(2.89 2.89)" >
	<path d="M 73.355 50.128 h -7.673 c -0.553 0 -1 -0.447 -1 -1 s 0.447 -1 1 -1 h 7.673 c 6.749 0 12.239 -5.49 12.239 -12.239 c 0 -3.973 -1.949 -7.715 -5.214 -10.011 c -0.256 -0.18 -0.413 -0.47 -0.424 -0.783 c -0.33 -9.327 -7.893 -16.633 -17.217 -16.633 c -4.523 0 -8.802 1.746 -12.047 4.916 c -0.228 0.224 -0.55 0.327 -0.864 0.271 c -0.314 -0.053 -0.586 -0.252 -0.729 -0.538 C 45.66 6.258 38.776 2 31.135 2 c -11.089 0 -20.11 9.021 -20.11 20.11 c 0 0.689 0.04 1.412 0.118 2.146 c 0.042 0.396 -0.156 0.78 -0.503 0.976 c -3.845 2.172 -6.234 6.256 -6.234 10.657 c 0 6.749 5.49 12.239 12.238 12.239 h 7.674 c 0.552 0 1 0.447 1 1 s -0.448 1 -1 1 h -7.674 c -7.851 0 -14.238 -6.388 -14.238 -14.239 c 0 -4.903 2.547 -9.467 6.688 -12.064 c -0.046 -0.583 -0.069 -1.158 -0.069 -1.715 C 9.025 9.918 18.943 0 31.135 0 C 39.1 0 46.314 4.205 50.267 11.061 c 3.483 -2.974 7.864 -4.598 12.474 -4.598 c 10.243 0 18.581 7.898 19.191 18.072 c 3.556 2.689 5.663 6.897 5.663 11.355 C 87.595 43.74 81.207 50.128 73.355 50.128 z" style="stroke: none; stroke-width: 1; stroke-dasharray: none; stroke-linecap: butt; stroke-linejoin: miter; stroke-miterlimit: 10; fill: rgb(230,58,24); fill-rule: nonzero; opacity: 1;" transform=" matrix(1 0 0 1 0 0) " stroke-linecap="round" />
	<path d="M 71.409 63.294 v -2.438 c 0 -2.849 -2.317 -5.166 -5.165 -5.166 H 54.778 V 41.136 l 4.173 -5.241 c 0.86 0.477 1.847 0.75 2.897 0.75 c 3.306 0 5.995 -2.689 5.995 -5.995 s -2.689 -5.995 -5.995 -5.995 s -5.995 2.689 -5.995 5.995 c 0 1.535 0.585 2.932 1.537 3.994 l -4.394 5.519 c -0.141 0.177 -0.218 0.397 -0.218 0.623 v 14.903 h -7.015 V 30.108 c 0 -0.226 -0.077 -0.446 -0.218 -0.623 l -4.394 -5.519 c 0.952 -1.062 1.537 -2.459 1.537 -3.994 c 0 -3.306 -2.689 -5.995 -5.995 -5.995 s -5.995 2.689 -5.995 5.995 s 2.689 5.995 5.995 5.995 c 1.051 0 2.038 -0.274 2.898 -0.75 l 4.172 5.241 v 25.232 h -6.542 v -8.497 c 0 -0.227 -0.077 -0.446 -0.218 -0.623 l -4.393 -5.518 c 0.952 -1.062 1.537 -2.459 1.537 -3.994 c 0 -3.306 -2.689 -5.995 -5.995 -5.995 s -5.995 2.689 -5.995 5.995 s 2.689 5.995 5.995 5.995 c 1.051 0 2.038 -0.273 2.897 -0.75 l 4.172 5.24 v 8.147 H 23.756 c -2.848 0 -5.166 2.317 -5.166 5.166 v 2.438 c 0 1.715 0.849 3.226 2.138 4.166 c -1.29 0.94 -2.138 2.451 -2.138 4.165 v 2.439 c 0 1.714 0.849 3.225 2.138 4.165 c -1.29 0.94 -2.138 2.451 -2.138 4.166 v 2.439 c 0 2.848 2.317 5.165 5.166 5.165 h 42.488 c 2.848 0 5.165 -2.317 5.165 -5.165 v -2.439 c 0 -1.715 -0.849 -3.226 -2.138 -4.166 c 1.289 -0.94 2.138 -2.451 2.138 -4.165 v -2.439 c 0 -1.714 -0.849 -3.225 -2.138 -4.165 C 70.56 66.52 71.409 65.009 71.409 63.294 z M 61.849 26.655 c 2.203 0 3.995 1.792 3.995 3.995 s -1.792 3.995 -3.995 3.995 s -3.995 -1.792 -3.995 -3.995 S 59.646 26.655 61.849 26.655 z M 32.699 19.972 c 0 -2.203 1.792 -3.995 3.995 -3.995 c 2.203 0 3.995 1.792 3.995 3.995 s -1.792 3.995 -3.995 3.995 C 34.491 23.967 32.699 22.175 32.699 19.972 z M 24.157 37.057 c 0 -2.203 1.792 -3.995 3.995 -3.995 s 3.995 1.792 3.995 3.995 s -1.792 3.995 -3.995 3.995 S 24.157 39.26 24.157 37.057 z M 69.409 82.396 v 2.439 c 0 1.745 -1.42 3.165 -3.165 3.165 H 23.756 c -1.746 0 -3.166 -1.42 -3.166 -3.165 v -2.439 c 0 -1.746 1.42 -3.166 3.166 -3.166 h 42.488 C 67.989 79.229 69.409 80.649 69.409 82.396 z M 69.409 63.294 c 0 1.746 -1.42 3.166 -3.165 3.166 h -7.506 c -0.553 0 -1 0.447 -1 1 s 0.447 1 1 1 h 7.506 c 1.745 0 3.165 1.42 3.165 3.165 v 2.439 c 0 1.745 -1.42 3.165 -3.165 3.165 H 23.756 c -1.746 0 -3.166 -1.42 -3.166 -3.165 v -2.439 c 0 -1.745 1.42 -3.165 3.166 -3.165 h 22.909 c 0.553 0 1 -0.447 1 -1 s -0.447 -1 -1 -1 H 23.756 c -1.746 0 -3.166 -1.42 -3.166 -3.166 v -2.438 c 0 -1.746 1.42 -3.166 3.166 -3.166 h 42.488 c 1.745 0 3.165 1.42 3.165 3.166 V 63.294 z" style="stroke: none; stroke-width: 1; stroke-dasharray: none; stroke-linecap: butt; stroke-linejoin: miter; stroke-miterlimit: 10; fill: rgb(230,58,24); fill-rule: nonzero; opacity: 1;" transform=" matrix(1 0 0 1 0 0) " stroke-linecap="round" />
	<path d="M 54.309 68.46 h -2.872 c -0.553 0 -1 -0.447 -1 -1 s 0.447 -1 1 -1 h 2.872 c 0.553 0 1 0.447 1 1 S 54.861 68.46 54.309 68.46 z" style="stroke: none; stroke-width: 1; stroke-dasharray: none; stroke-linecap: butt; stroke-linejoin: miter; stroke-miterlimit: 10; fill: rgb(230,58,24); fill-rule: nonzero; opacity: 1;" transform=" matrix(1 0 0 1 0 0) " stroke-linecap="round" />
	<path d="M 26.993 73.845 h -1.714 c -0.552 0 -1 -0.447 -1 -1 s 0.448 -1 1 -1 h 1.714 c 0.552 0 1 0.447 1 1 S 27.545 73.845 26.993 73.845 z" style="stroke: none; stroke-width: 1; stroke-dasharray: none; stroke-linecap: butt; stroke-linejoin: miter; stroke-miterlimit: 10; fill: rgb(230,58,24); fill-rule: nonzero; opacity: 1;" transform=" matrix(1 0 0 1 0 0) " stroke-linecap="round" />
	<path d="M 33.158 73.845 h -1.714 c -0.552 0 -1 -0.447 -1 -1 s 0.448 -1 1 -1 h 1.714 c 0.552 0 1 0.447 1 1 S 33.71 73.845 33.158 73.845 z" style="stroke: none; stroke-width: 1; stroke-dasharray: none; stroke-linecap: butt; stroke-linejoin: miter; stroke-miterlimit: 10; fill: rgb(230,58,24); fill-rule: nonzero; opacity: 1;" transform=" matrix(1 0 0 1 0 0) " stroke-linecap="round" />
	<path d="M 39.323 73.845 h -1.714 c -0.552 0 -1 -0.447 -1 -1 s 0.448 -1 1 -1 h 1.714 c 0.552 0 1 0.447 1 1 S 39.875 73.845 39.323 73.845 z" style="stroke: none; stroke-width: 1; stroke-dasharray: none; stroke-linecap: butt; stroke-linejoin: miter; stroke-miterlimit: 10; fill: rgb(230,58,24); fill-rule: nonzero; opacity: 1;" transform=" matrix(1 0 0 1 0 0) " stroke-linecap="round" />
	<path d="M 26.993 84.522 h -1.714 c -0.552 0 -1 -0.447 -1 -1 s 0.448 -1 1 -1 h 1.714 c 0.552 0 1 0.447 1 1 S 27.545 84.522 26.993 84.522 z" style="stroke: none; stroke-width: 1; stroke-dasharray: none; stroke-linecap: butt; stroke-linejoin: miter; stroke-miterlimit: 10; fill: rgb(230,58,24); fill-rule: nonzero; opacity: 1;" transform=" matrix(1 0 0 1 0 0) " stroke-linecap="round" />
	<path d="M 33.158 84.522 h -1.714 c -0.552 0 -1 -0.447 -1 -1 s 0.448 -1 1 -1 h 1.714 c 0.552 0 1 0.447 1 1 S 33.71 84.522 33.158 84.522 z" style="stroke: none; stroke-width: 1; stroke-dasharray: none; stroke-linecap: butt; stroke-linejoin: miter; stroke-miterlimit: 10; fill: rgb(230,58,24); fill-rule: nonzero; opacity: 1;" transform=" matrix(1 0 0 1 0 0) " stroke-linecap="round" />
	<path d="M 39.323 84.522 h -1.714 c -0.552 0 -1 -0.447 -1 -1 s 0.448 -1 1 -1 h 1.714 c 0.552 0 1 0.447 1 1 S 39.875 84.522 39.323 84.522 z" style="stroke: none; stroke-width: 1; stroke-dasharray: none; stroke-linecap: butt; stroke-linejoin: miter; stroke-miterlimit: 10; fill: rgb(230,58,24); fill-rule: nonzero; opacity: 1;" transform=" matrix(1 0 0 1 0 0) " stroke-linecap="round" />
	<path d="M 64.949 73.845 H 51.437 c -0.553 0 -1 -0.447 -1 -1 s 0.447 -1 1 -1 h 13.513 c 0.553 0 1 0.447 1 1 S 65.502 73.845 64.949 73.845 z" style="stroke: none; stroke-width: 1; stroke-dasharray: none; stroke-linecap: butt; stroke-linejoin: miter; stroke-miterlimit: 10; fill: rgb(230,58,24); fill-rule: nonzero; opacity: 1;" transform=" matrix(1 0 0 1 0 0) " stroke-linecap="round" />
	<path d="M 64.949 84.522 H 51.437 c -0.553 0 -1 -0.447 -1 -1 s 0.447 -1 1 -1 h 13.513 c 0.553 0 1 0.447 1 1 S 65.502 84.522 64.949 84.522 z" style="stroke: none; stroke-width: 1; stroke-dasharray: none; stroke-linecap: butt; stroke-linejoin: miter; stroke-miterlimit: 10; fill: rgb(230,58,24); fill-rule: nonzero; opacity: 1;" transform=" matrix(1 0 0 1 0 0) " stroke-linecap="round" />
	<path d="M 26.993 63.167 h -1.714 c -0.552 0 -1 -0.447 -1 -1 s 0.448 -1 1 -1 h 1.714 c 0.552 0 1 0.447 1 1 S 27.545 63.167 26.993 63.167 z" style="stroke: none; stroke-width: 1; stroke-dasharray: none; stroke-linecap: butt; stroke-linejoin: miter; stroke-miterlimit: 10; fill: rgb(230,58,24); fill-rule: nonzero; opacity: 1;" transform=" matrix(1 0 0 1 0 0) " stroke-linecap="round" />
	<path d="M 33.158 63.167 h -1.714 c -0.552 0 -1 -0.447 -1 -1 s 0.448 -1 1 -1 h 1.714 c 0.552 0 1 0.447 1 1 S 33.71 63.167 33.158 63.167 z" style="stroke: none; stroke-width: 1; stroke-dasharray: none; stroke-linecap: butt; stroke-linejoin: miter; stroke-miterlimit: 10; fill: rgb(230,58,24); fill-rule: nonzero; opacity: 1;" transform=" matrix(1 0 0 1 0 0) " stroke-linecap="round" />
	<path d="M 39.323 63.167 h -1.714 c -0.552 0 -1 -0.447 -1 -1 s 0.448 -1 1 -1 h 1.714 c 0.552 0 1 0.447 1 1 S 39.875 63.167 39.323 63.167 z" style="stroke: none; stroke-width: 1; stroke-dasharray: none; stroke-linecap: butt; stroke-linejoin: miter; stroke-miterlimit: 10; fill: rgb(230,58,24); fill-rule: nonzero; opacity: 1;" transform=" matrix(1 0 0 1 0 0) " stroke-linecap="round" />
	<path d="M 64.949 63.167 H 51.437 c -0.553 0 -1 -0.447 -1 -1 s 0.447 -1 1 -1 h 13.513 c 0.553 0 1 0.447 1 1 S 65.502 63.167 64.949 63.167 z" style="stroke: none; stroke-width: 1; stroke-dasharray: none; stroke-linecap: butt; stroke-linejoin: miter; stroke-miterlimit: 10; fill: rgb(230,58,24); fill-rule: nonzero; opacity: 1;" transform=" matrix(1 0 0 1 0 0) " stroke-linecap="round" />
</g>
</g>
</svg>